<svg xmlns="http://www.w3.org/2000/svg" width="423" height="499" viewBox="0 0 423 499" fill="none"><path d="M244.814 472.895H49.7279V498.992H244.814V472.895Z" fill="#090909"></path><path d="M279.121 305.526C284.325 305.665 287.813 300.214 285.495 295.546L249.139 222.18C248.366 220.334 247.486 218.542 246.488 216.825C238.988 203.927 225.37 194.977 209.446 194.076L106.452 188.281L106.419 188.238H105.658H105.497C105.389 188.238 105.271 188.249 105.164 188.26L88.102 188.582C58.2812 189.15 31.4006 208.455 23.1593 237.117C22.8267 238.276 22.5262 239.446 22.2472 240.626L0.871478 313.08C-0.59864 318.049 2.97471 323.092 8.15768 323.35L59.4616 325.936L42.9469 463.011C42.3031 468.387 46.4988 473.109 51.9071 473.109H246.274C250.673 473.109 254.215 469.514 254.15 465.114L254.075 304.807L279.121 305.515V305.526Z" fill="#4088FF"></path><path d="M246.263 473.645H51.9068C49.1705 473.645 46.5629 472.476 44.7494 470.426C42.9359 468.377 42.0882 465.651 42.4101 462.947L58.8604 326.441L8.12523 323.887C5.49618 323.758 3.10322 322.449 1.57945 320.292C0.0556738 318.146 -0.395019 315.463 0.356136 312.93L21.7104 240.465C21.9787 239.307 22.2899 238.115 22.6225 236.956C30.735 208.724 57.6478 188.604 88.0696 188.035L105.271 187.702C105.346 187.702 105.411 187.702 105.486 187.702H105.668H106.409C106.484 187.702 106.58 187.724 106.655 187.756L209.467 193.54C225.07 194.42 239.084 203.015 246.95 216.557C247.948 218.285 248.86 220.109 249.643 221.987L285.988 295.321C287.158 297.682 287.008 300.418 285.591 302.64C284.175 304.861 281.728 306.17 279.121 306.073L254.633 305.376L254.708 465.125C254.74 467.389 253.882 469.525 252.283 471.145C250.684 472.766 248.559 473.656 246.284 473.656L246.263 473.645ZM105.453 188.764H105.335C105.271 188.775 105.207 188.786 105.142 188.786L88.0803 189.108C58.1307 189.677 31.6364 209.475 23.6527 237.257C23.32 238.394 23.0196 239.575 22.7513 240.734L1.38629 313.231C0.731713 315.441 1.12875 317.792 2.45937 319.669C3.78999 321.547 5.88249 322.695 8.17888 322.814L59.4828 325.4C59.633 325.4 59.7725 325.475 59.8691 325.593C59.9657 325.711 60.0086 325.85 59.9871 326.001L43.4724 463.076C43.1827 465.479 43.9339 467.905 45.5435 469.718C47.1531 471.531 49.471 472.572 51.8961 472.572H246.263C248.248 472.572 250.104 471.8 251.489 470.383C252.884 468.967 253.635 467.1 253.603 465.125L253.528 304.818C253.528 304.678 253.581 304.539 253.689 304.432C253.796 304.335 253.925 304.271 254.075 304.281L279.121 304.99C281.385 305.086 283.445 303.949 284.658 302.049C285.87 300.15 285.999 297.8 285.001 295.783L248.645 222.416C247.862 220.549 246.982 218.768 246.005 217.094C238.311 203.863 224.63 195.461 209.392 194.602L106.398 188.807C106.333 188.807 106.28 188.786 106.215 188.764H105.636H105.443H105.453Z" fill="#090909"></path><path d="M309.98 239.133C316.279 227.597 318.425 213.647 312.759 201.414L305.516 204.054C305.516 204.054 298.584 184.073 297.457 169.48C294.678 164.511 274.526 174.984 274.526 174.984C274.526 174.984 276.522 169.533 277.53 166.818C278.593 163.932 279.666 160.852 279.033 157.847C278.399 154.843 275.309 152.139 272.39 153.094C269.514 154.038 264.063 165.96 262.346 168.761C252.012 185.651 252.141 207.735 253.955 226.836C254.921 237.008 250.317 341.795 252.077 346.441C262.69 374.534 302.222 375.103 313.618 347.321C315.067 341.859 315.904 336.268 316.107 330.667C316.397 323.091 303.842 255.315 303.649 253.019C303.381 249.799 304.905 246.956 306.675 244.262C307.813 242.524 309.057 240.839 309.98 239.144V239.133Z" fill="#F8EEE2"></path><path d="M283.068 368.364C282.896 368.364 282.724 368.364 282.542 368.364C268.42 368.16 256.563 359.833 251.573 346.624C250.639 344.145 251.305 318.734 252.431 280.254C253.161 255.144 253.858 231.418 253.418 226.879C251.712 208.926 251.133 186.059 261.885 168.471C262.293 167.795 262.958 166.54 263.72 165.08C266.95 158.899 270.03 153.287 272.219 152.568C273.485 152.15 274.902 152.332 276.189 153.072C277.863 154.038 279.151 155.82 279.548 157.719C280.235 160.97 279.011 164.308 278.024 166.99L275.492 173.879C280.213 171.529 295.29 164.511 297.919 169.212C297.962 169.276 297.983 169.351 297.983 169.437C298.981 182.496 304.755 200.127 305.838 203.357L312.567 200.9C312.824 200.803 313.125 200.921 313.232 201.179C318.49 212.553 317.471 226.482 310.431 239.38C309.777 240.582 308.95 241.805 308.145 242.986C307.791 243.501 307.448 244.016 307.105 244.542C305.162 247.503 303.918 250.068 304.164 252.965C304.218 253.556 305.152 258.878 306.45 266.239C310.077 286.789 316.837 325.055 316.623 330.678C316.408 336.333 315.56 341.977 314.112 347.45C308.789 360.413 296.932 368.364 283.035 368.364H283.068ZM273.614 153.427C273.27 153.427 272.916 153.48 272.551 153.598C270.588 154.242 266.735 161.625 264.664 165.585C263.86 167.119 263.226 168.332 262.797 169.04C252.206 186.349 252.785 208.991 254.481 226.782C254.921 231.396 254.223 255.144 253.494 280.286C252.624 310.053 251.637 343.791 252.571 346.248C257.4 359.028 268.892 367.098 282.553 367.291C296.224 367.441 307.931 359.758 313.114 347.117C314.52 341.784 315.357 336.226 315.571 330.646C315.775 325.141 309.036 286.95 305.409 266.432C304.057 258.76 303.156 253.695 303.102 253.062C302.812 249.671 304.433 246.688 306.214 243.962C306.557 243.436 306.911 242.911 307.266 242.396C308.092 241.183 308.864 240.045 309.498 238.887C316.279 226.45 317.353 213.079 312.47 202.091L305.688 204.559C305.559 204.602 305.409 204.602 305.27 204.537C305.141 204.473 305.044 204.366 304.991 204.226C304.926 204.022 298.059 184.127 296.921 169.652C294.882 166.561 282.295 171.551 274.762 175.468C274.569 175.564 274.322 175.543 274.161 175.392C273.989 175.242 273.936 175.017 274.011 174.802L277.015 166.636C277.949 164.082 279.119 160.906 278.496 157.955C278.164 156.367 277.048 154.822 275.642 154.017C275.127 153.727 274.419 153.427 273.603 153.427H273.614Z" fill="#090909"></path><path d="M270.535 186.188L289.282 204.881L303.296 177.657L300.313 165.284L274.838 174.749L270.535 186.188Z" fill="#090909"></path><path d="M300.29 214.41C295.268 215.279 290.504 211.91 289.634 206.898L281.168 157.837C280.299 152.815 283.668 148.051 288.679 147.182C293.701 146.312 298.466 149.682 299.335 154.693L307.802 203.754C308.671 208.776 305.301 213.541 300.29 214.41Z" fill="#FFB740"></path><path d="M298.692 215.086C296.696 215.086 294.754 214.475 293.09 213.305C290.966 211.803 289.549 209.56 289.099 206.995L280.632 157.934C280.192 155.369 280.771 152.783 282.274 150.648C283.776 148.523 286.019 147.107 288.583 146.656C291.148 146.216 293.734 146.796 295.87 148.298C297.994 149.8 299.411 152.043 299.862 154.608L308.328 203.669C309.24 208.97 305.678 214.024 300.377 214.947C299.819 215.043 299.25 215.086 298.692 215.086ZM290.257 147.579C289.764 147.579 289.26 147.622 288.766 147.708C286.48 148.105 284.484 149.36 283.143 151.26C281.802 153.159 281.287 155.455 281.684 157.741L290.15 206.802C290.547 209.088 291.803 211.084 293.702 212.425C295.601 213.766 297.898 214.282 300.183 213.884C304.905 213.069 308.081 208.573 307.266 203.851L298.799 154.79C298.402 152.504 297.147 150.508 295.247 149.178C293.766 148.137 292.039 147.59 290.257 147.59V147.579Z" fill="#090909"></path><path d="M295.955 138.234L278.962 141.166C275.399 141.781 273.01 145.167 273.624 148.73L274.276 152.505C274.89 156.067 278.277 158.457 281.839 157.842L298.833 154.91C302.395 154.295 304.785 150.909 304.17 147.347L303.519 143.572C302.904 140.009 299.518 137.619 295.955 138.234Z" fill="#FFF9F3"></path><path d="M280.729 158.46C277.349 158.46 274.355 156.024 273.754 152.59L273.1 148.803C272.435 144.961 275.021 141.291 278.873 140.626L295.871 137.696C299.712 137.031 303.382 139.617 304.047 143.469L304.702 147.257C305.367 151.099 302.77 154.769 298.929 155.434L281.931 158.364C281.523 158.439 281.126 158.471 280.729 158.471V158.46ZM297.083 138.651C296.74 138.651 296.407 138.683 296.053 138.737L279.055 141.667C275.793 142.225 273.593 145.347 274.162 148.609L274.817 152.397C275.385 155.659 278.487 157.849 281.76 157.291L298.757 154.361C302.019 153.803 304.219 150.68 303.65 147.418L302.996 143.63C302.491 140.711 299.948 138.651 297.083 138.651Z" fill="#090909"></path><path d="M246.266 123.415L251.215 122.562L252.884 132.237L247.936 133.091C245.514 133.509 243.218 131.88 242.802 129.469L242.645 128.559C242.228 126.138 243.857 123.842 246.268 123.426L246.266 123.415Z" fill="#F8EEE2"></path><path d="M247.163 133.672C246.143 133.672 245.145 133.361 244.298 132.76C243.214 131.998 242.484 130.85 242.259 129.541L242.098 128.629C241.626 125.924 243.45 123.338 246.165 122.866L251.122 122.008C251.262 121.986 251.401 122.008 251.519 122.094C251.637 122.179 251.713 122.297 251.734 122.437L253.408 132.116C253.429 132.256 253.408 132.395 253.322 132.513C253.236 132.631 253.118 132.706 252.979 132.728L248.021 133.586C247.731 133.64 247.452 133.661 247.163 133.661V133.672ZM250.779 123.156L246.358 123.918C244.233 124.283 242.806 126.311 243.171 128.435L243.332 129.348C243.514 130.378 244.072 131.279 244.931 131.88C245.778 132.481 246.819 132.717 247.849 132.535L252.271 131.773L250.779 123.156Z" fill="#090909"></path><path d="M268.961 98.3505L294.943 93.8674L303.699 144.615L277.718 149.098C265.039 151.285 252.962 142.763 250.775 130.084L249.95 125.304C247.762 112.626 256.284 100.549 268.963 98.3611L268.961 98.3505Z" fill="#FFB740"></path><path d="M273.742 149.951C262.357 149.951 252.249 141.742 250.242 130.152L249.416 125.366C247.184 112.404 255.908 100.042 268.86 97.7991L294.839 93.3136C295.129 93.26 295.408 93.4531 295.461 93.7536L304.218 144.499C304.239 144.639 304.218 144.778 304.132 144.897C304.046 145.015 303.928 145.09 303.788 145.111L277.809 149.597C276.446 149.833 275.084 149.951 273.742 149.951ZM294.496 94.4618L269.053 98.8507C256.67 100.986 248.343 112.801 250.478 125.173L251.304 129.959C253.44 142.343 265.243 150.67 277.627 148.534L303.07 144.145L294.496 94.4618Z" fill="#090909"></path><path d="M294.936 93.839L303.693 144.585C323.802 141.108 344.523 144.091 363.055 153.116L404.068 173.097L379.935 33.3281L348 65.8961C333.567 80.608 315.046 90.3623 294.936 93.839Z" fill="#F8EEE2" stroke="#090909" stroke-linecap="round" stroke-linejoin="round"></path><path d="M405.645 173.213C415.059 171.588 417.266 138.83 410.573 100.046C403.881 61.2615 390.824 31.1374 381.41 32.7618C371.996 34.3862 369.789 67.1441 376.481 105.929C383.173 144.713 396.23 174.837 405.645 173.213Z" fill="#FFF9F3" stroke="#090909" stroke-linecap="round" stroke-linejoin="round"></path><path d="M403.262 158.079C410.825 156.774 412.596 130.449 407.218 99.2797C401.84 68.1109 391.349 43.9014 383.786 45.2064C376.223 46.5114 374.452 72.8367 379.83 104.006C385.208 135.174 395.699 159.384 403.262 158.079Z" fill="#F8EEE2"></path><mask id="mask0_320_55758" style="mask-type:luminance" maskUnits="userSpaceOnUse" x="376" y="45" width="35" height="114"><path d="M403.263 158.079C410.826 156.774 412.597 130.449 407.219 99.2797C401.841 68.1109 391.35 43.9014 383.787 45.2064C376.224 46.5114 374.453 72.8367 379.831 104.006C385.209 135.174 395.7 159.384 403.263 158.079Z" fill="white"></path></mask><g mask="url(#mask0_320_55758)"><path d="M364.343 94.1388L382.532 90.9947C389.958 89.7177 397.018 94.6968 398.306 102.122C399.583 109.548 394.604 116.609 387.178 117.897L368.99 121.041L364.343 94.1495V94.1388Z" fill="#FFB740" stroke="#090909" stroke-linecap="round" stroke-linejoin="round"></path></g><path d="M403.262 158.079C410.825 156.774 412.596 130.449 407.218 99.2797C401.84 68.1109 391.349 43.9014 383.786 45.2064C376.223 46.5114 374.452 72.8367 379.83 104.006C385.208 135.174 395.699 159.384 403.262 158.079Z" stroke="#090909" stroke-linecap="round" stroke-linejoin="round"></path><path d="M308.812 144.381C308.554 144.381 308.329 144.198 308.286 143.93L299.787 92.8409C299.744 92.5512 299.937 92.2722 300.227 92.2185C300.517 92.1649 300.796 92.3688 300.849 92.6585L309.348 143.748C309.391 144.038 309.198 144.317 308.908 144.37C308.876 144.37 308.844 144.37 308.822 144.37L308.812 144.381Z" fill="#090909"></path><path d="M292.787 176.094L311.31 170.215C314.573 169.179 318.073 170.984 319.111 174.257L319.176 174.461C320.212 177.724 318.407 181.224 315.134 182.263L296.611 188.142C293.349 189.178 289.849 187.373 288.81 184.1L288.745 183.896C287.709 180.633 289.514 177.133 292.787 176.094Z" fill="#F8EEE2"></path><path d="M294.745 188.947C293.683 188.947 292.62 188.689 291.644 188.185C290.034 187.359 288.854 185.953 288.317 184.247L288.253 184.043C287.126 180.502 289.101 176.692 292.642 175.576L311.163 169.696C314.715 168.569 318.503 170.533 319.63 174.085L319.694 174.289C320.821 177.83 318.846 181.639 315.305 182.755L296.784 188.636C296.119 188.85 295.432 188.958 294.745 188.958V188.947ZM313.191 170.436C312.623 170.436 312.043 170.522 311.474 170.704L292.953 176.585C289.97 177.529 288.317 180.727 289.262 183.71L289.326 183.914C289.777 185.352 290.775 186.532 292.127 187.23C293.479 187.927 295.013 188.067 296.451 187.605L314.973 181.725C317.956 180.781 319.608 177.583 318.664 174.6L318.6 174.396C317.838 171.981 315.595 170.436 313.191 170.436Z" fill="#090909"></path><path d="M289.131 163.575L307.652 157.693C310.915 156.657 314.415 158.461 315.455 161.734L315.52 161.938C316.556 165.201 314.751 168.701 311.479 169.741L292.957 175.623C289.694 176.659 286.194 174.855 285.155 171.582L285.09 171.378C284.053 168.115 285.858 164.615 289.131 163.575Z" fill="#F8EEE2"></path><path d="M291.086 176.433C290.024 176.433 288.961 176.176 287.985 175.671C286.375 174.845 285.195 173.439 284.658 171.733L284.594 171.529C284.046 169.823 284.207 167.988 285.044 166.389C285.871 164.78 287.276 163.599 288.983 163.063L307.504 157.182C311.045 156.055 314.855 158.03 315.971 161.571L316.035 161.775C316.582 163.481 316.421 165.316 315.584 166.915C314.747 168.514 313.352 169.705 311.646 170.242L293.125 176.122C292.459 176.337 291.773 176.444 291.086 176.444V176.433ZM309.532 157.923C308.963 157.923 308.384 158.008 307.815 158.191L289.294 164.071C287.856 164.533 286.675 165.52 285.978 166.872C285.28 168.224 285.141 169.759 285.602 171.197L285.667 171.4C286.117 172.838 287.115 174.019 288.468 174.716C289.82 175.414 291.354 175.553 292.792 175.092L311.313 169.211C312.751 168.75 313.932 167.763 314.629 166.411C315.327 165.059 315.466 163.524 315.005 162.086L314.94 161.882C314.178 159.468 311.936 157.923 309.532 157.923Z" fill="#090909"></path><path d="M319.178 187.057L319.199 187.111C320.218 190.33 318.426 193.785 315.207 194.816L302.566 198.829C299.347 199.848 295.892 198.056 294.862 194.837L294.84 194.783C293.821 191.564 295.613 188.109 298.832 187.079L311.462 183.065C314.681 182.046 318.147 183.838 319.167 187.057H319.178Z" fill="#F8EEE2"></path><path d="M300.721 199.655C297.888 199.655 295.259 197.842 294.358 195.009C293.231 191.446 295.173 187.69 298.682 186.574L311.312 182.561C313.008 182.025 314.811 182.185 316.399 183.001C317.987 183.827 319.157 185.201 319.693 186.896L319.715 186.95C320.251 188.645 320.101 190.448 319.275 192.036C318.448 193.624 317.075 194.794 315.379 195.331L302.738 199.344C302.073 199.559 301.397 199.655 300.721 199.655ZM313.33 183.323C312.761 183.323 312.192 183.409 311.645 183.591L299.015 187.605C296.075 188.538 294.444 191.693 295.377 194.633C296.332 197.627 299.487 199.258 302.416 198.325L315.057 194.311C316.474 193.861 317.633 192.884 318.33 191.553C319.028 190.223 319.146 188.71 318.695 187.293L318.674 187.24C318.223 185.823 317.246 184.664 315.905 183.967C315.09 183.548 314.21 183.334 313.33 183.334V183.323Z" fill="#090909"></path><path d="M308.563 196.901L314.823 194.915C318.086 193.88 321.586 195.685 322.624 198.959L322.689 199.163C323.724 202.426 321.918 205.926 318.645 206.964L312.385 208.95C309.123 209.985 305.623 208.179 304.584 204.906L304.52 204.702C303.485 201.439 305.29 197.939 308.563 196.901Z" fill="#F8EEE2"></path><path d="M310.528 209.743C309.466 209.743 308.404 209.485 307.427 208.981C305.818 208.155 304.637 206.749 304.101 205.043L304.036 204.839C303.489 203.133 303.65 201.298 304.487 199.699C305.313 198.089 306.719 196.909 308.425 196.372L314.681 194.387C318.222 193.26 322.032 195.235 323.158 198.776L323.223 198.98C323.77 200.686 323.609 202.51 322.772 204.12C321.946 205.73 320.54 206.91 318.834 207.447L312.578 209.432C311.913 209.646 311.226 209.754 310.539 209.754L310.528 209.743ZM316.709 195.128C316.141 195.128 315.561 195.213 314.992 195.396L308.736 197.381C307.298 197.843 306.118 198.83 305.42 200.182C304.723 201.534 304.583 203.068 305.045 204.506L305.109 204.71C305.56 206.148 306.558 207.329 307.91 208.026C309.262 208.724 310.797 208.863 312.235 208.402L318.491 206.416C319.929 205.955 321.109 204.968 321.806 203.616C322.504 202.264 322.643 200.729 322.182 199.291L322.118 199.087C321.356 196.673 319.113 195.128 316.709 195.128Z" fill="#090909"></path><path d="M274.248 176.048C274.248 176.048 276.534 169.545 277.532 166.819C278.594 163.933 279.667 160.853 279.034 157.848C278.401 154.844 275.31 152.14 272.392 153.095C269.516 154.039 264.065 165.961 262.348 168.762" fill="#F8EEE2"></path><path d="M274.752 176.22L273.744 175.866C273.744 175.866 276.029 169.363 277.027 166.637C277.961 164.083 279.13 160.907 278.508 157.956C278.175 156.368 277.059 154.823 275.654 154.018C274.935 153.599 273.808 153.191 272.552 153.599C270.589 154.243 266.736 161.626 264.665 165.586C263.861 167.12 263.227 168.333 262.798 169.041C262.637 169.298 262.305 169.373 262.058 169.223C261.8 169.073 261.725 168.74 261.875 168.483C262.283 167.807 262.948 166.551 263.71 165.092C266.94 158.911 270.02 153.299 272.209 152.58C273.475 152.161 274.892 152.344 276.179 153.084C277.853 154.05 279.141 155.831 279.538 157.731C280.225 160.982 279.002 164.319 278.014 167.002C277.016 169.728 274.731 176.22 274.731 176.22H274.752Z" fill="#090909"></path><path d="M269.171 193.937C268.871 193.937 268.635 193.69 268.646 193.389C268.71 187.487 273.56 176.295 273.764 175.823C273.882 175.555 274.204 175.426 274.472 175.544C274.741 175.662 274.87 175.984 274.751 176.252C274.698 176.37 269.783 187.713 269.719 193.4C269.719 193.69 269.472 193.926 269.182 193.926L269.171 193.937Z" fill="#090909"></path><path d="M232.097 53.7499C232.344 53.4065 232.569 53.0524 232.719 52.6446C235.617 49.3717 237.538 45.1867 237.978 40.4974C239.072 28.7257 230.412 18.3061 218.651 17.2116C217.653 17.115 216.677 17.1257 215.711 17.1686C205.334 8.20843 198.102 -1.48147 179.902 0.857843C172.885 1.75923 166.371 5.3755 162.379 11.2131C161.821 12.0286 161.338 12.8978 160.888 13.7992C160.533 14.5181 151.251 15.559 150.017 15.9024C141.347 18.3061 130.262 21.8687 125.937 30.4641C124.027 34.2628 123.416 38.5444 123.265 42.826C116.73 48.0197 114.069 57.2052 116.698 65.5108L123.512 86.9831C124.939 86.629 126.42 86.4144 127.955 86.4144H136.647C137.183 87.3265 137.709 88.2279 138.235 89.1615C140.928 93.926 142.677 99.0016 142.474 104.549C153.719 88.8288 207.534 92.928 219.478 92.928C231.421 92.928 241.1 83.2488 241.1 71.3055C241.1 64.0729 237.538 57.6881 232.086 53.7606L232.097 53.7499Z" fill="#090909"></path><path d="M142.495 105.075C142.441 105.075 142.377 105.075 142.323 105.042C142.098 104.967 141.948 104.753 141.958 104.517C142.141 99.6341 140.778 94.698 137.795 89.4184C137.323 88.5814 136.851 87.7659 136.368 86.9503H127.987C126.592 86.9503 125.133 87.1328 123.673 87.5083C123.394 87.5727 123.115 87.4225 123.029 87.1542L116.215 65.6819C113.522 57.2046 116.151 47.9439 122.761 42.5678C122.901 39.2627 123.341 34.4875 125.487 30.2381C129.64 21.9969 139.684 18.2411 149.91 15.4082C150.35 15.2901 151.605 15.1077 153.183 14.8716C155.501 14.5282 159.772 13.8951 160.48 13.4981C160.973 12.5109 161.456 11.6739 161.961 10.9334C165.899 5.16027 172.423 1.30791 179.86 0.352873C195.741 -1.68598 203.575 5.45 211.87 13.0152C213.179 14.2063 214.531 15.4404 215.926 16.6529C216.977 16.61 217.868 16.6315 218.727 16.7066C224.564 17.2431 229.833 20.0331 233.578 24.5401C237.323 29.047 239.083 34.7451 238.546 40.5719C238.117 45.1861 236.282 49.4677 233.224 52.9445C233.127 53.1698 233.009 53.4059 232.87 53.642C238.396 57.827 241.69 64.3942 241.69 71.3048C241.69 83.5272 231.754 93.4639 219.531 93.4639C217.954 93.4639 215.69 93.3888 212.814 93.303C194.786 92.745 152.56 91.4358 142.967 104.86C142.86 105 142.699 105.085 142.527 105.085L142.495 105.075ZM127.976 85.8773H136.668C136.861 85.8773 137.033 85.9738 137.13 86.1455C137.666 87.0576 138.192 87.9698 138.718 88.8926C141.497 93.7966 142.914 98.4323 143.032 103.014C154.438 90.4164 193.649 91.629 212.803 92.2192C215.668 92.305 217.922 92.3801 219.488 92.3801C231.121 92.3801 240.574 82.9156 240.574 71.2941C240.574 64.5444 237.291 58.1489 231.786 54.1892C231.668 54.1034 231.593 53.9746 231.571 53.8351C231.55 53.6956 231.582 53.5454 231.668 53.4381C231.925 53.084 232.108 52.7728 232.226 52.4616C232.247 52.3972 232.28 52.3435 232.322 52.3006C235.263 48.9741 237.033 44.8856 237.441 40.4646C237.956 34.9167 236.282 29.4977 232.719 25.2161C229.157 20.9238 224.146 18.284 218.598 17.7689C217.739 17.6938 216.827 17.6724 215.733 17.726C215.593 17.7368 215.464 17.6831 215.357 17.5972C213.898 16.331 212.481 15.0541 211.118 13.8093C202.663 6.09385 195.366 -0.569974 179.967 1.41522C172.842 2.32734 166.596 6.01873 162.819 11.5451C162.326 12.264 161.853 13.0903 161.37 14.0668C161.091 14.6248 159.943 14.9575 153.312 15.9447C151.884 16.1593 150.543 16.3525 150.168 16.4598C140.177 19.2283 130.38 22.8661 126.42 30.7425C124.821 33.9188 123.995 37.7711 123.802 42.879C123.802 43.04 123.727 43.1795 123.598 43.276C117.192 48.3624 114.627 57.2475 117.213 65.3815L123.877 86.3816C125.261 86.0704 126.635 85.9095 127.966 85.9095L127.976 85.8773Z" fill="#090909"></path><path d="M189.634 55.8847C187.402 54.6936 185.159 53.3523 182.648 52.9874C176.456 52.0861 170.791 57.2798 164.535 57.1081C160.038 56.99 155.789 53.7386 154.501 49.4355C158.182 68.4076 153.739 88.8175 142.493 104.538C142.697 98.9903 140.959 93.9254 138.255 89.1502C137.729 88.2273 137.203 87.3152 136.667 86.4031H127.975C126.44 86.4031 124.959 86.6177 123.532 86.9718C115.538 88.9785 109.571 96.2218 109.571 104.806V106.598C109.571 116.718 117.856 125.002 127.975 125.002H132.889L127.975 186.457C126.537 204.42 139.94 220.152 157.903 221.59L161.079 221.847C179.043 223.285 194.774 209.882 196.212 191.919L198.068 168.773C214.304 168.504 227.395 155.273 227.395 138.973V67.0662C227.395 63.9328 226.891 60.9282 225.99 58.106C224.541 58.9859 223.007 59.7156 221.418 60.2629C211.02 63.8363 199.356 61.0677 189.645 55.8847H189.634Z" fill="#F8EEE2"></path><path d="M163.73 222.502C162.829 222.502 161.938 222.469 161.026 222.394L157.85 222.137C149.018 221.429 140.991 217.329 135.24 210.58C129.499 203.83 126.719 195.256 127.428 186.425L132.299 125.549H127.964C117.523 125.549 109.024 117.05 109.024 106.609V104.817C109.024 96.1359 114.926 88.5814 123.393 86.4567C124.949 86.0704 126.483 85.8665 127.975 85.8665H136.667C136.86 85.8665 137.032 85.9631 137.128 86.1348C137.665 87.0469 138.191 87.959 138.717 88.8818C141.453 93.7214 142.869 98.2927 143.03 102.81C153.407 87.4761 157.495 67.6885 153.976 49.5213C153.922 49.2423 154.094 48.9633 154.373 48.8989C154.652 48.8345 154.931 48.9955 155.017 49.2638C156.251 53.3737 160.264 56.4427 164.556 56.5607C167.411 56.6358 170.19 55.5306 172.894 54.4682C176.049 53.2234 179.311 51.9465 182.734 52.4401C185.041 52.7727 187.112 53.8995 189.119 54.9833L189.892 55.4018C196.33 58.8356 208.95 63.9542 221.236 59.737C222.76 59.2112 224.262 58.503 225.7 57.6338C225.84 57.5479 226.011 57.5372 226.172 57.5909C226.323 57.6445 226.441 57.7733 226.494 57.9342C227.449 60.9281 227.932 63.9971 227.932 67.0554V138.973C227.932 155.262 214.809 168.762 198.562 169.298L196.749 191.962C196.04 200.793 191.941 208.82 185.192 214.572C179.139 219.733 171.606 222.491 163.741 222.491L163.73 222.502ZM127.975 86.9503C126.58 86.9503 125.121 87.1327 123.661 87.5083C115.678 89.515 110.108 96.6295 110.108 104.828V106.62C110.108 116.471 118.124 124.487 127.975 124.487H132.89C133.04 124.487 133.179 124.551 133.287 124.658C133.383 124.766 133.437 124.916 133.426 125.066L128.512 186.521C127.825 195.063 130.518 203.369 136.077 209.893C141.635 216.417 149.404 220.388 157.957 221.074L161.133 221.332C169.675 222.019 177.98 219.336 184.505 213.767C191.029 208.208 194.999 200.439 195.686 191.887L197.543 168.74C197.564 168.461 197.789 168.247 198.068 168.247C213.95 167.978 226.87 154.855 226.87 138.984V67.0662C226.87 64.3298 226.473 61.5934 225.679 58.9107C224.348 59.6619 222.985 60.2843 221.59 60.7672C208.928 65.1131 195.987 59.8765 189.398 56.3568L188.615 55.9383C186.694 54.8974 184.709 53.8244 182.584 53.5132C179.44 53.0517 176.457 54.2321 173.291 55.4769C170.48 56.5822 167.572 57.7196 164.535 57.6445C161.026 57.5479 157.678 55.6593 155.628 52.8371C158.15 70.8648 153.525 90.0622 142.944 104.849C142.805 105.042 142.558 105.118 142.333 105.042C142.107 104.967 141.957 104.753 141.968 104.517C142.15 99.6341 140.788 94.6979 137.804 89.4184C137.332 88.5814 136.86 87.7658 136.377 86.9503H127.996H127.975Z" fill="#090909"></path><path d="M137.257 125.065L131.452 140.925L127.825 125.012L137.257 125.065Z" fill="#090909"></path><path d="M131.452 141.462C131.452 141.462 131.431 141.462 131.42 141.462C131.184 141.452 130.98 141.28 130.927 141.044L127.289 125.13C127.257 124.969 127.289 124.798 127.396 124.679C127.503 124.551 127.697 124.486 127.815 124.476L137.247 124.529C137.419 124.529 137.58 124.615 137.687 124.755C137.783 124.894 137.805 125.077 137.751 125.248L131.957 141.108C131.882 141.323 131.678 141.462 131.452 141.462ZM128.491 125.549L131.57 139.037L136.485 125.602L128.491 125.559V125.549Z" fill="#090909"></path><path d="M125.411 99.8057L132.161 107.317L125.851 111.438" fill="#F8EEE2"></path><path d="M125.851 111.974C125.679 111.974 125.507 111.888 125.4 111.728C125.239 111.481 125.303 111.148 125.561 110.987L131.356 107.21L125.024 100.16C124.831 99.9344 124.842 99.6017 125.067 99.3978C125.282 99.2047 125.625 99.2154 125.829 99.4408L132.579 106.952C132.686 107.07 132.729 107.221 132.708 107.382C132.686 107.543 132.6 107.671 132.472 107.757L126.151 111.878C126.065 111.931 125.958 111.964 125.861 111.964L125.851 111.974Z" fill="#090909"></path><path d="M197.908 114.861H192.746C192.446 114.861 192.21 114.625 192.21 114.324C192.21 114.024 192.446 113.788 192.746 113.788H197.908C199.603 113.788 201.213 113.036 202.297 111.738C203.391 110.44 203.853 108.733 203.552 107.059L200.365 88.9565C200.312 88.6668 200.505 88.3878 200.805 88.3341C201.084 88.2805 201.374 88.4736 201.428 88.7741L204.615 106.877C204.969 108.862 204.421 110.89 203.123 112.435C201.825 113.981 199.925 114.871 197.908 114.871V114.861Z" fill="#090909"></path><path d="M214.787 98.4644C215.152 100.503 213.8 102.456 211.761 102.821C209.722 103.186 207.769 101.834 207.404 99.7951C207.039 97.7562 208.391 95.8032 210.419 95.4384C212.458 95.0735 214.411 96.4256 214.776 98.4644H214.787Z" fill="#090909"></path><path d="M194.645 149.125C194.473 149.168 194.29 149.157 194.119 149.082C193.947 149.007 189.816 147.193 186.757 150.434C186.457 150.745 185.974 150.756 185.652 150.466C185.341 150.166 185.319 149.672 185.62 149.361C189.462 145.294 194.72 147.633 194.773 147.665C195.16 147.848 195.331 148.309 195.16 148.695C195.063 148.921 194.87 149.071 194.645 149.125Z" fill="#090909"></path><path d="M164.587 84.5794C166.455 84.794 168.536 83.9355 170.586 83.2273C172.635 82.4654 174.717 81.7572 176.552 81.2099C178.387 80.6519 180.512 80.0832 182.647 79.5788C184.751 79.0315 186.961 78.5808 188.378 77.379C189.751 76.2415 189.815 74.1383 187.24 72.357C184.804 70.6079 179.471 69.5133 173.397 71.3376C167.345 73.194 163.589 77.0356 162.602 79.8256C161.529 82.7122 162.795 84.4077 164.598 84.5901L164.587 84.5794Z" fill="#090909"></path><path d="M222.62 81.5206C221.225 81.7888 219.69 81.1665 218.166 80.6728C216.642 80.1363 215.097 79.6427 213.734 79.2564C212.372 78.8808 210.794 78.5052 209.217 78.1833C207.65 77.8184 206.008 77.5502 204.967 76.6059C203.959 75.7152 203.916 73.9661 205.847 72.3672C207.672 70.7898 211.653 69.6309 216.16 70.8756C220.656 72.1419 223.424 75.1787 224.143 77.4536C224.927 79.8144 223.972 81.2845 222.63 81.5206H222.62Z" fill="#090909"></path><path d="M182.143 99.7628C181.972 102.027 180.008 103.712 177.744 103.551C175.479 103.379 173.795 101.415 173.956 99.1511C174.127 96.8869 176.091 95.2022 178.355 95.3632C180.619 95.5349 182.304 97.4986 182.143 99.7628Z" fill="#090909"></path><path d="M173.817 103.755C173.817 103.755 177.476 101.126 181.039 104.259L173.817 103.755Z" fill="#F8EEE2"></path><path d="M181.039 104.795C180.91 104.795 180.781 104.753 180.684 104.656C177.508 101.855 174.267 104.087 174.139 104.184C173.903 104.356 173.559 104.302 173.387 104.055C173.216 103.819 173.269 103.476 173.506 103.304C173.548 103.272 177.562 100.46 181.393 103.84C181.618 104.034 181.639 104.377 181.436 104.602C181.328 104.72 181.178 104.785 181.039 104.785V104.795Z" fill="#090909"></path><path d="M208.176 103.487C208.176 103.487 211.492 101.995 214.561 103.551L208.176 103.487Z" fill="#F8EEE2"></path><path d="M214.55 104.088C214.464 104.088 214.389 104.066 214.303 104.034C211.502 102.618 208.412 103.97 208.39 103.981C208.122 104.099 207.8 103.981 207.682 103.712C207.564 103.444 207.682 103.122 207.95 103.004C208.09 102.94 211.535 101.427 214.797 103.079C215.065 103.208 215.162 103.541 215.033 103.798C214.936 103.981 214.754 104.088 214.55 104.088Z" fill="#090909"></path><path d="M172.711 115.697C174.127 114.753 176.016 114.989 177.282 116.137C179.579 118.241 184.569 121.964 191.715 122.694C193.475 122.876 194.376 124.915 193.625 126.514C191.973 130.023 187.53 135.431 178.302 131.096C167.056 125.816 169.02 118.165 172.722 115.708L172.711 115.697Z" fill="#FFF9F3"></path><path d="M184.601 133.221C182.744 133.221 180.577 132.749 178.066 131.579C170.812 128.177 169.46 124.003 169.299 121.814C169.105 119.217 170.329 116.642 172.421 115.258C174.02 114.195 176.166 114.399 177.647 115.751C179.933 117.844 184.805 121.449 191.769 122.168C192.702 122.265 193.507 122.801 193.99 123.66C194.527 124.615 194.57 125.763 194.108 126.75C193.26 128.553 190.47 133.242 184.601 133.242V133.221ZM173.011 116.148C171.67 117.039 170.168 119.045 170.361 121.739C170.608 125.108 173.505 128.263 178.516 130.613C187.809 134.97 191.833 129.036 193.132 126.289C193.443 125.623 193.411 124.819 193.057 124.186C192.745 123.638 192.252 123.295 191.662 123.241C184.386 122.501 179.3 118.734 176.928 116.556C175.812 115.537 174.213 115.376 173.022 116.17L173.011 116.148Z" fill="#090909"></path><path d="M197.865 168.965C197.865 168.965 164.331 171.133 156.047 157.548C156.047 157.548 163.505 179.954 196.363 187.744L197.865 168.976V168.965Z" fill="#090909"></path><path d="M196.363 188.271C196.363 188.271 196.277 188.271 196.234 188.26C163.462 180.491 155.607 157.945 155.532 157.709C155.447 157.452 155.565 157.173 155.811 157.055C156.058 156.947 156.348 157.033 156.498 157.259C164.514 170.415 197.49 168.451 197.822 168.419C197.983 168.419 198.134 168.462 198.241 168.58C198.348 168.687 198.402 168.848 198.391 168.998L196.889 187.766C196.878 187.927 196.792 188.067 196.674 188.153C196.578 188.217 196.47 188.26 196.363 188.26V188.271ZM158.333 161.089C162.024 167.689 172.24 181.274 195.88 187.058L197.286 169.524C192.961 169.739 168.678 170.49 158.333 161.079V161.089Z" fill="#090909"></path><path d="M9.25219 400.89L12.2353 323.618L93.3601 326.226C93.3279 326.698 101.086 268.827 101.043 269.299L93.3601 326.226L82.5649 325.893L81.4811 351.604C81.4811 351.604 155.03 313.993 161.318 306.417C161.318 306.417 182.608 285.191 191.107 279.429C192.019 278.806 192.963 278.205 194.026 277.926C195.088 277.647 196.311 277.755 197.159 278.452C198.264 279.364 198.447 280.974 198.382 282.412C198.189 286.854 196.429 291.029 194.669 295.139C195.185 294.978 248.935 277.164 251.897 276.424C256.983 275.136 256.747 282.165 253.131 285.985C248.527 290.857 227.119 302.124 225.96 302.403C231.122 302.21 236.069 301.169 237.303 309.582C238.151 315.387 233.021 317.008 227.806 317.609C231.1 317.727 233.923 318.832 234.223 322.738C235.522 329.348 230.027 332.031 224.544 332.707C224.383 332.728 224.351 332.943 224.512 333.007C229.008 334.767 225.896 343.03 219.286 345.434L182.308 361.026C178.509 362.742 79.5174 438.04 79.5174 438.04C68.0569 446.067 54.74 447.859 42.7752 444.812C22.9232 439.747 9.3273 421.408 9.24146 400.912L9.25219 400.89Z" fill="#F8EEE2"></path><path d="M53.9672 446.743C50.2114 446.743 46.4234 446.271 42.6462 445.305C22.7513 440.229 8.79057 421.965 8.71545 400.89V400.869L11.6986 323.596C11.7093 323.306 11.9347 323.081 12.2566 323.081L92.8985 325.667L100.217 271.423C100.303 270.833 100.356 270.372 100.41 270.007L100.517 269.213H100.55C100.678 268.708 100.807 268.719 101.108 268.751C101.397 268.783 101.612 269.041 101.59 269.331L98.4678 292.423C98.3283 293.486 98.178 294.548 98.0385 295.61L94.272 323.607C94.1647 324.38 94.0896 324.959 94.0145 325.41L93.8965 326.3C93.8857 326.418 93.8213 326.526 93.7462 326.612C93.6389 326.805 93.5209 326.794 93.317 326.773C93.317 326.773 93.3063 326.773 93.2955 326.773L83.0798 326.461L82.0604 350.724C90.1514 346.571 155.116 313.069 160.91 306.084C161.157 305.837 182.361 284.719 190.806 278.999C191.783 278.334 192.759 277.711 193.897 277.422C195.249 277.068 196.601 277.304 197.513 278.055C198.565 278.924 199.026 280.362 198.94 282.444C198.758 286.629 197.245 290.513 195.646 294.269C195.968 294.162 196.343 294.033 196.783 293.893C240.071 279.579 250.577 276.209 251.779 275.909C254.204 275.286 255.32 276.467 255.76 277.228C257.09 279.503 256.071 283.678 253.538 286.36C249.793 290.32 234.824 298.647 228.675 301.748C232.817 301.609 236.777 302.156 237.85 309.507C238.14 311.503 237.775 313.198 236.755 314.518C235.457 316.213 233.236 317.104 231.047 317.619C233.343 318.424 234.556 320.109 234.76 322.706C235.232 325.109 234.845 327.234 233.601 328.951C231.755 331.494 228.482 332.599 225.724 333.082C226.679 333.823 227.184 334.982 227.162 336.42C227.119 339.735 224.233 344.21 219.468 345.938L182.522 361.519C179.571 362.849 114.07 412.436 79.8499 438.469C72.0271 443.953 63.1098 446.764 53.9672 446.764V446.743ZM9.78853 400.901C9.87438 421.482 23.4918 439.317 42.9145 444.264C55.5554 447.483 68.443 445.112 79.2167 437.579C83.2408 434.51 178.283 362.227 182.093 360.51L219.082 344.918C223.374 343.362 226.057 339.274 226.1 336.387C226.111 335.389 225.821 334.069 224.329 333.49C224.029 333.372 223.857 333.071 223.889 332.76C223.932 332.449 224.179 332.202 224.49 332.159C228.353 331.676 231.283 330.314 232.742 328.296C233.804 326.826 234.126 324.991 233.708 322.824C233.461 319.733 231.594 318.263 227.795 318.124C227.516 318.124 227.291 317.887 227.28 317.608C227.28 317.329 227.473 317.083 227.752 317.05C232.012 316.557 234.599 315.537 235.908 313.842C236.755 312.737 237.045 311.363 236.788 309.635C235.725 302.424 232.023 302.607 227.312 302.854C226.872 302.875 226.432 302.897 225.992 302.918C225.703 302.918 225.477 302.725 225.445 302.457C225.402 302.188 225.585 301.931 225.853 301.866C227.259 301.48 248.291 290.331 252.766 285.609C255.127 283.109 255.813 279.407 254.848 277.754C254.332 276.874 253.388 276.606 252.058 276.939C250.877 277.239 240.393 280.598 197.137 294.902C195.742 295.364 194.927 295.632 194.862 295.653C194.669 295.718 194.444 295.653 194.304 295.503C194.165 295.353 194.122 295.127 194.208 294.934C195.914 290.932 197.685 286.79 197.878 282.39C197.953 280.662 197.62 279.514 196.848 278.87C196.204 278.344 195.206 278.184 194.186 278.452C193.221 278.699 192.33 279.267 191.429 279.879C183.069 285.545 161.94 306.588 161.726 306.803C155.47 314.346 84.7538 350.552 81.7492 352.097C81.5775 352.183 81.3736 352.172 81.2127 352.076C81.0517 351.968 80.9551 351.797 80.9659 351.604L82.0282 326.418L12.7824 324.197L9.82073 400.922L9.78853 400.901Z" fill="#090909"></path><path d="M81.6198 338.33L49.7279 368.398L81.4696 352.162L81.6198 338.33Z" fill="#090909"></path><path d="M194.207 295.814L174.205 305.139C174.205 305.139 192.952 290.256 196.729 289.064L194.207 295.814Z" fill="#090909"></path><path d="M214.81 305.827C214.81 305.827 226.968 301.792 229.082 301.706L214.81 305.827Z" fill="#F8EEE2"></path><path d="M214.811 306.363C214.585 306.363 214.371 306.224 214.306 305.998C214.21 305.719 214.371 305.408 214.65 305.322C215.143 305.161 226.904 301.266 229.061 301.169C229.351 301.159 229.608 301.384 229.619 301.684C229.63 301.985 229.404 302.232 229.104 302.242C227.43 302.318 218.341 305.226 214.982 306.342C214.929 306.363 214.864 306.374 214.811 306.374V306.363Z" fill="#090909"></path><path d="M217.6 321.482C217.374 321.482 217.16 321.332 217.085 321.107C216.999 320.828 217.16 320.527 217.439 320.431L228.728 316.9C229.017 316.814 229.307 316.975 229.404 317.254C229.49 317.533 229.329 317.834 229.05 317.93L217.761 321.461C217.761 321.461 217.653 321.482 217.6 321.482Z" fill="#090909"></path><path d="M217.654 335.067C217.418 335.067 217.204 334.917 217.139 334.681C217.053 334.391 217.225 334.101 217.504 334.015L223.631 332.256C223.921 332.17 224.211 332.341 224.297 332.62C224.382 332.91 224.211 333.2 223.932 333.286L217.804 335.046C217.804 335.046 217.708 335.067 217.654 335.067Z" fill="#090909"></path></svg>